HIERARCHY
ROOT Hips
{
 OFFSET 0.000000 0.000000 0.000000
 CHANNELS 6 Xposition Yposition Zposition Yrotation Xrotation Zrotation
 JOINT Chest
 {
  OFFSET 0.000000 9.585900 0.002600
  CHANNELS 3 Yrotation Xrotation Zrotation
  JOINT Chest2
  {
   OFFSET 0.000000 9.601200 -0.005300
   CHANNELS 3 Yrotation Xrotation Zrotation
   JOINT Chest3
   {
    OFFSET 0.000000 9.561800 0.000000
    CHANNELS 3 Yrotation Xrotation Zrotation
    JOINT Chest4
    {
     OFFSET 0.000000 9.552100 0.000000
     CHANNELS 3 Yrotation Xrotation Zrotation
     JOINT Neck
     {
      OFFSET 0.000000 14.453000 0.000000
      CHANNELS 3 Yrotation Xrotation Zrotation
      JOINT Head
      {
       OFFSET 0.000000 8.936500 -0.011300
       CHANNELS 3 Yrotation Xrotation Zrotation
       End Site
       {
        OFFSET 0.000000 17.073600 -0.006000
       }
      }
     }
     JOINT RightCollar
     {
      OFFSET -2.921100 9.558500 0.000000
      CHANNELS 3 Yrotation Xrotation Zrotation
      JOINT RightShoulder
      {
       OFFSET -13.519700 0.000000 0.000000
       CHANNELS 3 Yrotation Xrotation Zrotation
       JOINT RightElbow
       {
        OFFSET 0.000000 -29.696600 0.000000
        CHANNELS 3 Yrotation Xrotation Zrotation
        JOINT RightWrist
        {
         OFFSET 0.000000 -24.004700 0.000000
         CHANNELS 3 Yrotation Xrotation Zrotation
         End Site
         {
          OFFSET 0.000000 -17.728500 0.000000
         }
        }
       }
      }
     }
     JOINT LeftCollar
     {
      OFFSET 2.921100 9.558500 0.000000
      CHANNELS 3 Yrotation Xrotation Zrotation
      JOINT LeftShoulder
      {
       OFFSET 13.519700 0.000000 0.000000
       CHANNELS 3 Yrotation Xrotation Zrotation
       JOINT LeftElbow
       {
        OFFSET 0.000000 -29.696600 0.000000
        CHANNELS 3 Yrotation Xrotation Zrotation
        JOINT LeftWrist
        {
         OFFSET 0.000000 -24.004700 0.000000
         CHANNELS 3 Yrotation Xrotation Zrotation
         End Site
         {
          OFFSET 0.000000 -17.728500 0.000000
         }
        }
       }
      }
     }
    }
   }
  }
 }
 JOINT RightHip
 {
  OFFSET -7.771700 -0.012900 -0.001300
  CHANNELS 3 Yrotation Xrotation Zrotation
  JOINT RightKnee
  {
   OFFSET 0.000000 -40.869800 0.001200
   CHANNELS 3 Yrotation Xrotation Zrotation
   JOINT RightAnkle
   {
    OFFSET 0.000000 -39.717900 0.002100
    CHANNELS 3 Yrotation Xrotation Zrotation
    JOINT RightToe
    {
     OFFSET 0.000000 -4.965400 11.033500
     CHANNELS 3 Yrotation Xrotation Zrotation
     End Site
     {
      OFFSET 0.000000 -1.423100 5.872300
     }
    }
   }
  }
 }
 JOINT LeftHip
 {
  OFFSET 7.771700 -0.012900 -0.001300
  CHANNELS 3 Yrotation Xrotation Zrotation
  JOINT LeftKnee
  {
   OFFSET 0.000000 -40.869800 0.001200
   CHANNELS 3 Yrotation Xrotation Zrotation
   JOINT LeftAnkle
   {
    OFFSET 0.000000 -39.717900 0.002100
    CHANNELS 3 Yrotation Xrotation Zrotation
    JOINT LeftToe
    {
     OFFSET 0.000000 -4.965400 11.033500
     CHANNELS 3 Yrotation Xrotation Zrotation
     End Site
     {
      OFFSET 0.000000 -1.423100 5.872300
     }
    }
   }
  }
 }
}
MOTION
Frames: 5
Frame Time: 0.008333
-19.272631 52.228788 30.405634 178.035519 -39.764225 -0.096553 2.100619 25.256744 -0.994752 0.381870 4.042586 -0.171096 0.605576 6.460201 -0.260938 1.911103 20.871679 -0.610892 0.063584 19.192891 -6.437076 1.461749 -5.349261 -6.866854 13.423475 9.544719 10.370618 70.151154 -9.335435 -60.519169 128.331052 -26.987649 -164.161135 7.184815 -2.450682 -8.039516 -10.700788 14.975270 -17.297239 -32.137814 -4.405958 38.416244 90.738348 -54.848213 -43.927215 18.250086 1.925942 1.532574 -9.539055 -42.279888 0.012182 -41.757855 82.210156 -49.598607 -3.242630 -4.429537 5.970633 -0.011935 0.851303 -0.434469 5.216216 -40.962239 -4.474072 46.262549 82.608241 53.075316 -2.090424 -11.464489 -1.291652 0.055031 0.158553 -0.017305
-19.266011 52.218353 30.395425 177.982579 -39.765621 -0.049876 2.103375 25.249345 -1.011462 0.380043 4.037189 -0.169435 0.602750 6.452135 -0.258306 1.919044 20.876836 -0.617752 0.037521 19.147156 -6.416537 1.437346 -5.396052 -6.869909 13.410147 9.547311 10.358231 70.147618 -9.334961 -60.459635 128.299810 -26.950305 -164.135364 7.208682 -2.458520 -8.122619 -10.672210 14.900107 -17.256293 -32.107054 -4.286344 38.358340 89.652929 -55.677094 -43.180748 18.117128 2.465642 1.184265 -9.479627 -42.305423 0.027325 -42.453570 82.271009 -50.320858 -3.301851 -4.783229 6.075287 0.000428 0.875112 -0.396321 5.267210 -40.962826 -4.482590 46.367405 82.631362 53.175674 -2.081793 -11.494561 -1.277931 0.042654 0.166157 -0.013170
-19.257587 52.207235 30.386942 177.939566 -39.762498 -0.014105 2.100521 25.240897 -1.023031 0.378421 4.031980 -0.167952 0.600246 6.444367 -0.256062 1.927717 20.879124 -0.624159 0.009236 19.093741 -6.400392 1.403854 -5.450928 -6.870385 13.345660 9.493922 10.351291 70.188839 -9.293862 -60.348862 128.254027 -26.911509 -164.098800 7.236966 -2.477383 -8.196275 -10.645691 14.826519 -17.219272 -32.062404 -4.152831 38.310990 88.643053 -56.449744 -42.498124 17.992505 2.925039 0.846989 -9.435404 -42.325734 0.045117 -42.919371 82.333834 -50.813305 -3.359254 -5.123972 6.175907 -0.002409 0.889294 -0.366375 5.299762 -40.968822 -4.471146 46.357887 82.662685 53.155100 -2.077990 -11.521747 -1.271733 0.043938 0.177463 -0.008862
-19.245133 52.195778 30.379900 177.888372 -39.756189 0.008402 2.111805 25.231933 -1.013347 0.384312 4.027842 -0.170205 0.591310 6.435448 -0.250496 1.919340 20.866275 -0.620589 -0.015601 19.047905 -6.406082 1.365726 -5.514357 -6.867873 13.324579 9.473873 10.326500 70.219988 -9.265273 -60.263913 128.193752 -26.871242 -164.054192 7.273713 -2.500247 -8.266964 -10.609027 14.767172 -17.206350 -32.012489 -4.004142 38.278544 87.750075 -57.164197 -41.907455 17.887299 3.315928 0.532450 -9.404793 -42.337239 0.073650 -43.163575 82.371074 -51.069446 -3.383704 -5.422714 6.254633 -0.016745 0.886168 -0.341534 5.323832 -40.979207 -4.437130 46.384029 82.693497 53.173901 -2.071652 -11.558112 -1.267747 0.042985 0.193946 -0.009918
-19.232463 52.178851 30.380554 177.793109 -39.696116 0.060551 2.156096 25.173022 -1.006218 0.404640 4.024315 -0.180065 0.567797 6.425021 -0.237502 1.885792 20.830834 -0.592285 -0.071695 18.955048 -6.425425 1.372939 -5.525571 -6.900909 13.338089 9.494914 10.270960 70.240503 -9.243945 -60.209849 128.083375 -26.791933 -163.985324 7.264167 -2.495621 -8.347581 -10.561811 14.728227 -17.232003 -31.978009 -3.885242 38.233860 86.926362 -57.834254 -41.351072 17.803921 3.641130 0.249597 -9.337691 -42.436170 0.170224 -43.858896 82.383357 -51.792304 -3.483581 -5.628542 6.312000 0.047733 0.817311 -0.280072 5.388593 -41.043838 -4.414068 46.367344 82.710343 53.152692 -2.075255 -11.578535 -1.256676 0.039377 0.208571 -0.015094
